<svg xmlns="http://www.w3.org/2000/svg" xmlns:xlink="http://www.w3.org/1999/xlink" width="500" zoomAndPan="magnify" viewBox="0 0 375 374.999991" height="500" preserveAspectRatio="xMidYMid meet" version="1.2"><defs><clipPath id="ca6a94ceb3"><path d="M 156.371094 149 L 218.621094 149 L 218.621094 226.019531 L 156.371094 226.019531 Z M 156.371094 149 "/></clipPath></defs><g id="db86e4965d"><g clip-rule="nonzero" clip-path="url(#ca6a94ceb3)"><path style=" stroke:none;fill-rule:evenodd;fill:#ffc24b;fill-opacity:1;" d="M 211.953125 172.9375 C 211.882812 172.96875 211.828125 173.023438 211.792969 173.09375 C 212.136719 173.160156 212.34375 173.347656 212.3125 173.617188 C 212.289062 173.835938 212.160156 173.769531 211.914062 173.976562 C 211.792969 174.078125 211.710938 174.292969 211.59375 174.335938 C 211.261719 174.460938 210.792969 174.238281 211.03125 173.734375 C 210.921875 173.71875 210.722656 173.953125 210.710938 174.175781 C 210.777344 174.363281 211.164062 174.230469 211.191406 174.453125 C 211.125 174.90625 210.492188 174.796875 210.351562 175.179688 C 210.0625 175.222656 209.964844 175.082031 209.828125 174.976562 C 209.730469 175.253906 209.78125 175.601562 209.632812 175.898438 C 209.328125 176.152344 208.804688 175.960938 208.871094 175.492188 C 208.636719 175.554688 208.882812 175.871094 208.75 176.054688 C 208.636719 176.132812 208.402344 176.246094 208.230469 176.136719 C 207.972656 176.328125 207.597656 176.445312 207.832031 176.816406 C 207.734375 176.910156 207.597656 176.816406 207.472656 176.816406 C 206.765625 177.460938 205.949219 178.105469 205.109375 178.777344 C 204.324219 179.40625 203.375 180.109375 202.867188 180.859375 C 202.628906 181.214844 202.621094 181.785156 202.148438 182.058594 C 202.394531 182.542969 202.675781 182.746094 202.589844 183.5 C 202.546875 183.847656 202.269531 184.101562 202.226562 184.421875 C 202.171875 184.863281 202.503906 185.707031 202.664062 186.34375 C 202.835938 187.007812 203.105469 187.609375 203.269531 188.105469 C 203.460938 188.699219 203.53125 189.40625 203.667969 190.066406 C 203.945312 191.394531 204.433594 192.96875 203.585938 194.027344 C 203.601562 194.136719 203.753906 194.097656 203.785156 194.1875 C 203.851562 193.917969 204.351562 193.113281 204.429688 193.984375 C 204.296875 194.117188 204.09375 194.160156 203.90625 194.230469 C 203.785156 194.480469 203.796875 194.675781 203.667969 194.867188 C 203.5 194.824219 203.410156 194.699219 203.148438 194.746094 C 203.128906 194.964844 202.972656 195.050781 202.785156 195.105469 C 202.933594 195.328125 202.910156 195.628906 202.746094 195.832031 C 202.59375 195.863281 202.40625 195.902344 202.304688 195.785156 C 202.230469 195.984375 202.199219 196.210938 202.027344 196.308594 C 201.871094 196.320312 201.785156 196.261719 201.707031 196.1875 C 201.527344 196.433594 201.417969 196.582031 201.386719 196.90625 C 200.976562 197.042969 200.71875 197.332031 200.265625 197.429688 C 200.363281 198.1875 200.304688 198.824219 200.027344 199.554688 C 199.785156 200.179688 199.710938 200.855469 198.984375 200.871094 C 198.621094 200.882812 198.429688 200.703125 198.222656 200.472656 C 198.125 200.566406 197.988281 200.472656 197.863281 200.472656 C 197.433594 200.054688 197.296875 199.152344 197.386719 198.351562 C 196.230469 198.785156 195.179688 199.671875 194.058594 200.273438 C 194.140625 200.402344 194.359375 200.402344 194.304688 200.667969 C 194.15625 200.925781 193.664062 200.84375 193.582031 200.59375 C 189.269531 203.226562 185.164062 206.074219 180.972656 208.835938 C 180.902344 208.898438 180.855469 208.988281 180.816406 209.078125 C 180.523438 209.191406 180.25 209.226562 180.09375 209.394531 C 179.902344 209.613281 180.011719 209.78125 179.816406 209.878906 C 179.558594 210 179.148438 209.847656 178.972656 210.117188 C 179.035156 210.296875 178.980469 210.390625 178.933594 210.558594 C 178.632812 210.65625 178.339844 210.765625 178.050781 210.875 C 177.914062 211.328125 177.550781 211.550781 177.167969 211.757812 C 176.972656 211.757812 176.933594 211.59375 176.734375 211.597656 C 176.636719 211.734375 176.914062 211.769531 176.890625 211.957031 C 176.75 212.214844 176.636719 212.507812 176.332031 212.601562 C 176.140625 212.574219 176.449219 212.453125 176.449219 212.359375 C 176.195312 212.382812 176.195312 212.160156 176.089844 212.039062 C 176.011719 212.039062 176.042969 212.148438 175.929688 212.117188 C 176.035156 212.4375 176.234375 212.917969 175.808594 213.042969 C 175.835938 213.132812 175.867188 213.222656 175.851562 213.359375 C 175.796875 213.402344 175.730469 213.421875 175.6875 213.476562 C 175.472656 213.519531 175.4375 213.382812 175.292969 213.359375 C 175.128906 213.574219 174.789062 213.933594 174.410156 213.679688 C 174.207031 213.753906 174.132812 213.960938 174.050781 214.15625 C 173.640625 214.246094 173.425781 214.523438 173.25 214.839844 C 172.875 214.871094 172.609375 215 172.609375 215.398438 C 172.488281 215.480469 172.375 215.566406 172.167969 215.5625 C 172.113281 215.863281 171.601562 215.988281 171.367188 215.761719 C 171.164062 215.851562 171.136719 216.117188 170.769531 216.042969 C 170.695312 215.976562 170.671875 215.871094 170.6875 215.71875 C 170.488281 215.789062 170.363281 215.933594 170.207031 216.042969 C 170.273438 216.214844 170.507812 216.226562 170.484375 216.480469 C 170.496094 216.605469 170.386719 216.617188 170.289062 216.640625 C 170.457031 217.511719 168.933594 216.820312 169.804688 216.445312 C 169.253906 216.546875 168.8125 217.019531 168.324219 217.363281 C 166.902344 218.355469 165.378906 219.324219 163.804688 220.207031 C 163.96875 221.265625 163.664062 222.9375 163.882812 224.085938 C 163.925781 224.320312 164.039062 224.496094 164.046875 224.683594 C 164.0625 225.4375 163.578125 226.019531 163 226.007812 C 162.109375 225.992188 161.847656 224.820312 162.320312 224.085938 C 162.234375 223.046875 162.03125 222.046875 162.082031 220.960938 C 162.097656 220.691406 162.171875 220.417969 162.125 220.160156 C 162.054688 219.800781 161.714844 219.351562 161.519531 218.964844 C 160.933594 217.800781 160.082031 216.742188 159.523438 215.636719 C 158.0625 215.21875 156.402344 214.785156 156.597656 212.796875 C 156.695312 211.8125 157.398438 211.300781 157.996094 210.753906 C 159.527344 209.378906 160.65625 207.40625 162.042969 205.796875 C 163.632812 203.945312 165.285156 202.105469 166.804688 200.234375 C 168.371094 198.289062 169.875 196.363281 171.449219 194.546875 C 173.082031 192.660156 174.617188 190.769531 176.054688 188.824219 C 174.382812 188.6875 172.503906 188.65625 170.851562 188.542969 C 170.359375 188.507812 169.777344 188.4375 169.371094 188.226562 C 168.652344 187.855469 167.660156 187.234375 167.925781 186.066406 C 168.089844 185.339844 168.703125 184.476562 169.125 183.777344 C 169.582031 183.03125 170.109375 182.347656 170.566406 181.738281 C 173.53125 177.8125 176.378906 173.269531 179.132812 169.488281 C 179.046875 169.453125 178.84375 169.332031 178.933594 169.25 C 178.972656 169.015625 179.15625 169.152344 179.375 169.128906 C 179.570312 168.902344 179.6875 168.597656 179.890625 168.375 C 179.570312 168.394531 179.28125 168.070312 179.613281 167.890625 C 179.792969 167.929688 179.933594 168 179.972656 168.171875 C 180.113281 168.058594 180.179688 167.875 180.292969 167.730469 C 180.109375 167.671875 179.914062 167.632812 179.972656 167.328125 C 180.003906 167.296875 180.082031 167.308594 180.09375 167.253906 C 180.304688 167.226562 180.363281 167.351562 180.453125 167.449219 C 180.609375 167.035156 180.992188 166.839844 181.175781 166.453125 C 181.105469 166.34375 180.9375 166.339844 180.890625 166.207031 C 180.925781 165.988281 181.191406 166 181.453125 166.011719 C 181.316406 165.570312 181.914062 165.390625 181.734375 165.011719 C 182.265625 164.835938 182.574219 164.433594 182.976562 164.128906 C 182.894531 164.023438 182.558594 164.175781 182.535156 164.007812 C 182.492188 163.730469 182.839844 163.519531 183.054688 163.367188 C 183.003906 163.582031 183.296875 163.464844 183.375 163.449219 C 183.34375 163.519531 183.265625 163.550781 183.292969 163.6875 C 183.503906 163.589844 183.582031 163.359375 183.734375 163.207031 C 183.367188 163.367188 183.765625 163.199219 183.898438 162.96875 C 183.835938 162.992188 183.800781 163.027344 183.777344 163.089844 C 183.835938 162.964844 183.597656 162.695312 183.816406 162.488281 C 183.59375 162.523438 183.359375 162.820312 183.136719 162.609375 C 183.253906 162.222656 183.554688 162.015625 184.054688 162.003906 C 184.265625 161.75 184.347656 161.367188 184.652344 161.207031 C 184.644531 161.058594 184.496094 161.046875 184.535156 160.847656 C 184.757812 160.46875 185.359375 160.367188 185.820312 160.449219 C 185.890625 160.371094 185.855469 160.191406 185.9375 160.128906 C 185.648438 160.355469 184.859375 160.082031 185.335938 159.722656 C 185.785156 159.878906 186.207031 159.902344 186.539062 159.566406 C 186.257812 159.21875 185.398438 159.5625 185.378906 159.042969 C 185.359375 158.664062 185.910156 158.621094 186.417969 158.722656 C 186.558594 158.667969 186.707031 158.539062 186.894531 158.648438 C 186.875 158.378906 186.5 158.28125 186.65625 157.964844 C 186.789062 158.15625 187.066406 158.199219 187.253906 158.324219 C 187.390625 158.222656 187.511719 158.097656 187.695312 158.042969 C 187.632812 157.910156 187.347656 157.992188 187.300781 157.847656 C 187.265625 157.667969 187.414062 157.667969 187.457031 157.5625 C 187.183594 157.65625 187 157.523438 186.976562 157.363281 C 186.941406 157.09375 187.347656 157.058594 187.335938 156.808594 C 187.484375 156.730469 187.734375 156.671875 187.816406 156.84375 C 187.820312 156.996094 187.738281 157.058594 187.621094 157.085938 C 187.9375 157.296875 187.523438 157.515625 187.578125 157.683594 C 187.859375 157.480469 188.035156 157.183594 188.054688 156.925781 C 188.328125 156.851562 188.289062 157.09375 188.496094 157.085938 C 188.621094 157.101562 188.605469 156.976562 188.699219 156.964844 C 188.554688 156.734375 188.242188 156.46875 188.421875 156.164062 C 188.746094 155.980469 189.078125 156.402344 189.296875 156.203125 C 189.210938 156.109375 188.898438 156.230469 188.898438 156.042969 C 188.910156 155.84375 189.046875 155.765625 189.257812 155.761719 C 189.296875 155.703125 189.019531 155.523438 189.175781 155.320312 C 188.898438 155.328125 188.503906 155.480469 188.496094 155.125 C 188.496094 154.867188 188.769531 154.957031 188.9375 154.765625 C 189.035156 154.652344 188.960938 154.511719 189.101562 154.445312 C 189.101562 154.308594 188.855469 154.417969 188.855469 154.28125 C 188.828125 154.015625 189.046875 153.992188 189.296875 154.003906 C 189.328125 154.160156 189.554688 154.292969 189.460938 154.445312 C 189.535156 154.515625 189.660156 154.296875 189.859375 154.363281 C 189.859375 154.253906 189.859375 154.152344 189.859375 154.042969 C 189.65625 154.105469 188.894531 154.050781 188.855469 153.601562 C 188.921875 153.519531 189.058594 153.507812 189.21875 153.523438 C 189.246094 153.324219 189.320312 153.324219 189.21875 153.160156 C 189.3125 153.066406 189.324219 153.226562 189.417969 153.242188 C 189.625 153.046875 189.003906 152.625 189.460938 152.441406 C 189.433594 152.679688 189.5625 152.761719 189.617188 152.921875 C 189.695312 152.902344 189.722656 152.832031 189.820312 152.84375 C 189.589844 152.605469 189.867188 152.054688 190.140625 151.800781 C 190.351562 151.761719 190.429688 151.859375 190.5 151.960938 C 190.472656 152.082031 190.34375 152.09375 190.179688 152.082031 C 190.113281 152.25 190.226562 152.414062 190.097656 152.5625 C 190.347656 152.398438 190.5 152.039062 190.738281 151.761719 C 190.984375 151.476562 191.265625 151.265625 191.582031 151.082031 C 191.550781 150.875 191.621094 150.773438 191.660156 150.640625 C 191.832031 150.601562 191.984375 150.535156 192.21875 150.558594 C 192.296875 150.617188 192.363281 150.683594 192.421875 150.757812 C 192.765625 150.738281 193.042969 150.640625 193.378906 150.722656 C 193.421875 150.675781 193.1875 150.421875 193.378906 150.316406 C 193.449219 150.316406 193.515625 150.316406 193.582031 150.316406 C 193.691406 150.460938 193.542969 150.605469 193.5 150.722656 C 193.902344 150.644531 194.332031 150.246094 194.820312 150.519531 C 195.023438 151.03125 194.382812 150.890625 194.179688 150.839844 C 194.292969 150.9375 194.496094 151.101562 194.621094 151.117188 C 194.664062 151.128906 194.675781 151.007812 194.703125 151 C 194.785156 150.964844 194.875 151.101562 194.941406 151.078125 C 195.132812 151.015625 195.328125 150.613281 195.585938 150.921875 C 195.644531 151.042969 195.59375 151.128906 195.539062 151.238281 C 195.835938 151.285156 196.167969 151.28125 196.222656 151.558594 C 196.25 151.75 196.132812 151.792969 196.0625 151.878906 C 196.3125 151.847656 196.570312 152.042969 196.664062 152.28125 C 196.695312 152.484375 196.5625 152.527344 196.503906 152.640625 C 196.617188 152.820312 196.90625 152.828125 196.902344 153.121094 C 197.085938 153.109375 197.195312 153.175781 197.265625 153.277344 C 197.300781 153.476562 197.171875 153.507812 197.066406 153.5625 C 197.097656 153.660156 197.15625 153.738281 197.148438 153.882812 C 201.148438 154.328125 205.441406 155.152344 209.710938 155.445312 C 210.503906 155.496094 211.289062 155.625 212.070312 155.683594 C 212.582031 155.722656 213.058594 155.570312 213.550781 155.566406 C 216.082031 155.527344 217.277344 157.730469 217.636719 159.886719 C 217.707031 159.964844 217.917969 159.898438 217.957031 160.007812 C 217.824219 160.359375 217.574219 160.648438 217.71875 161.167969 C 217.851562 161.230469 218.074219 161.210938 218.121094 161.367188 C 218.097656 161.507812 218.050781 161.617188 217.917969 161.644531 C 218.277344 162.058594 217.652344 162.347656 217.636719 162.765625 C 217.644531 162.917969 217.859375 162.863281 217.875 163.007812 C 217.914062 163.21875 217.695312 163.167969 217.679688 163.328125 C 217.941406 163.347656 218.121094 162.941406 218.359375 162.804688 C 218.410156 163.371094 218.136719 163.871094 217.679688 164.128906 C 217.609375 164.464844 217.945312 164.394531 218.074219 164.53125 C 218.148438 164.875 218.433594 165.296875 217.796875 165.40625 C 217.804688 165.695312 217.734375 165.90625 217.714844 166.167969 C 217.824219 166.300781 218.074219 166.289062 218.195312 166.40625 C 218.226562 166.621094 218.195312 166.785156 218.277344 167.011719 C 218.195312 167.121094 218.054688 167.082031 217.957031 167.011719 C 217.878906 167.136719 217.886719 167.339844 217.796875 167.449219 C 217.542969 167.371094 217.84375 166.917969 217.597656 166.886719 C 217.484375 167.351562 217.816406 167.710938 218.039062 167.96875 C 217.957031 168.257812 218.097656 168.230469 218.121094 168.492188 C 217.957031 168.578125 217.84375 168.464844 217.71875 168.410156 C 217.71875 168.613281 217.71875 168.808594 217.71875 169.011719 C 217.921875 169.113281 217.972656 169.367188 218.121094 169.53125 C 218.027344 169.78125 217.878906 169.890625 218.039062 170.167969 C 218.128906 170.335938 218.308594 170.285156 218.316406 170.453125 C 218.332031 170.707031 218.113281 170.824219 217.714844 170.730469 C 217.65625 170.816406 217.644531 170.957031 217.636719 171.09375 C 217.816406 171.0625 217.933594 171.132812 218.121094 171.171875 C 218.191406 171.617188 218.023438 171.824219 217.796875 171.972656 C 217.875 172.167969 217.90625 171.878906 218.074219 171.933594 C 217.902344 172.417969 218.054688 172.40625 218.074219 172.890625 C 217.96875 173.101562 217.6875 173.140625 217.597656 173.375 C 217.558594 173.558594 217.835938 173.429688 217.796875 173.613281 C 217.824219 173.773438 217.644531 173.730469 217.515625 173.734375 C 217.515625 174.097656 217.792969 174.070312 217.796875 174.496094 C 217.609375 174.582031 217.382812 174.636719 217.3125 174.855469 C 217.296875 174.964844 217.535156 174.824219 217.515625 174.933594 C 217.5 175.160156 217.339844 175.242188 217.3125 175.453125 C 216.835938 175.421875 216.863281 175.835938 216.4375 175.855469 C 215.015625 175.917969 215.46875 171.910156 215.636719 170.894531 C 215.429688 170.921875 215.597656 171.089844 215.554688 171.289062 C 215.355469 171.59375 214.980469 171.730469 214.433594 171.691406 C 214.316406 171.621094 214.242188 171.511719 214.195312 171.371094 C 214.070312 171.410156 214.15625 171.648438 214.074219 171.730469 C 214.183594 171.808594 214.375 171.808594 214.472656 171.894531 C 214.640625 172.226562 214.351562 172.507812 214.035156 172.375 C 213.835938 175.21875 213.855469 178.535156 213.992188 181.375 C 214.003906 181.5625 213.964844 181.757812 213.992188 181.9375 C 214.042969 182.289062 214.191406 182.425781 214.195312 182.617188 C 214.238281 184.105469 211.855469 184.125 212.070312 182.460938 C 212.121094 182.113281 212.207031 181.398438 212.234375 180.859375 C 212.359375 178.171875 212.539062 175.449219 212.714844 172.8125 C 212.371094 172.410156 212.683594 173.011719 212.355469 173.09375 C 212.191406 173.136719 212.09375 173.050781 211.953125 172.9375 Z M 192.945312 201.46875 C 192.863281 200.914062 193.574219 201.082031 193.582031 201.351562 C 193.585938 201.605469 193.125 201.691406 192.945312 201.46875 Z M 195.464844 199.949219 C 195.464844 200.042969 195.464844 200.136719 195.464844 200.234375 C 194.773438 200.746094 194.703125 199.464844 195.464844 199.949219 Z M 195.824219 199.671875 C 195.730469 199.183594 196.507812 198.917969 196.625 199.269531 C 196.734375 199.589844 196.121094 199.871094 195.824219 199.671875 Z M 197.183594 198.792969 C 197.207031 199 197.128906 199.105469 196.945312 199.113281 C 196.738281 198.972656 196.949219 198.605469 197.183594 198.792969 Z M 204.347656 198.589844 C 204.21875 197.953125 205.097656 198.078125 205.148438 198.386719 C 205.203125 198.742188 204.605469 198.824219 204.347656 198.589844 Z M 202.34375 197.589844 C 202.621094 197.492188 202.921875 197.523438 202.988281 197.75 C 203.25 198.640625 201.347656 197.941406 202.34375 197.589844 Z M 205.148438 196.871094 C 205.148438 196.953125 205.148438 197.027344 205.148438 197.109375 C 205.050781 197.222656 204.613281 197.328125 204.550781 197.109375 C 204.550781 196.828125 204.964844 196.726562 205.148438 196.871094 Z M 204.667969 196.269531 C 204.664062 196.386719 204.578125 196.417969 204.511719 196.46875 C 204.347656 196.429688 204.199219 196.375 204.191406 196.191406 C 204.269531 196.003906 204.640625 196.0625 204.667969 196.269531 Z M 203.546875 196.191406 C 203.507812 196.539062 203.121094 196.539062 202.867188 196.667969 C 202.5625 196.308594 203.320312 195.769531 203.546875 196.191406 Z M 205.550781 195.390625 C 205.550781 195.472656 205.550781 195.546875 205.550781 195.628906 C 205.347656 195.8125 204.957031 195.652344 204.988281 195.347656 C 205.125 195.222656 205.453125 195.253906 205.550781 195.390625 Z M 204.027344 195.628906 C 203.761719 195.769531 203.210938 195.753906 203.148438 195.507812 C 203.019531 194.996094 204.335938 194.898438 204.027344 195.628906 Z M 176.367188 194.46875 C 176.367188 194.523438 176.367188 194.574219 176.367188 194.628906 C 176.28125 194.8125 175.824219 194.84375 175.652344 194.710938 C 175.65625 194.660156 175.640625 194.636719 175.613281 194.628906 C 175.574219 194.125 176.191406 194.191406 176.367188 194.46875 Z M 176.570312 193.265625 C 176.730469 193.332031 176.917969 193.371094 176.929688 193.585938 C 176.78125 193.777344 176.394531 193.511719 176.570312 193.265625 Z M 177.8125 192.789062 C 177.804688 193.085938 177.523438 193.113281 177.371094 193.265625 C 177.285156 193.207031 177.1875 193.164062 177.210938 192.988281 C 177.523438 193.050781 177.566406 192.65625 177.8125 192.789062 Z M 177.652344 192.707031 C 177.5625 192.789062 177.347656 192.742188 177.25 192.707031 C 177.257812 192.664062 177.246094 192.636719 177.210938 192.625 C 177.191406 192.242188 177.691406 192.40625 177.652344 192.707031 Z M 178.289062 191.988281 C 178.257812 192.1875 178.027344 192.375 177.894531 192.347656 C 177.832031 192.199219 178.066406 191.851562 178.289062 191.988281 Z M 181.054688 191.066406 C 181.054688 191.246094 181.222656 191.269531 181.25 191.425781 C 181.269531 191.683594 180.777344 191.683594 180.652344 191.546875 C 180.691406 191.285156 180.703125 191.007812 181.054688 191.066406 Z M 180.734375 190.148438 C 180.707031 190.316406 180.554688 190.371094 180.375 190.386719 C 180.359375 190.332031 180.304688 190.320312 180.292969 190.265625 C 180.28125 190.078125 180.609375 190.070312 180.734375 190.148438 Z M 181.496094 190.148438 C 181.464844 190.277344 181.234375 190.367188 181.09375 190.265625 C 181.027344 189.972656 181.425781 189.980469 181.496094 190.148438 Z M 181.976562 190.265625 C 181.84375 190.429688 181.617188 190.367188 181.535156 190.1875 C 181.539062 189.84375 182.003906 190.007812 181.976562 190.265625 Z M 182.859375 189.222656 C 182.777344 189.394531 182.613281 189.613281 182.371094 189.503906 C 182.3125 189.179688 182.679688 189.074219 182.859375 189.222656 Z M 181.894531 189.101562 C 181.726562 188.714844 182.4375 188.492188 182.417969 188.863281 C 182.402344 189.046875 182.160156 189.089844 181.894531 189.101562 Z M 181.855469 188.785156 C 181.851562 188.992188 181.453125 188.984375 181.371094 188.984375 C 181.152344 188.699219 181.761719 188.519531 181.855469 188.785156 Z M 183.171875 188.226562 C 183.320312 187.941406 183.960938 187.964844 183.933594 188.265625 C 183.914062 188.53125 183.25 188.585938 183.171875 188.226562 Z M 182.535156 187.988281 C 182.507812 188.171875 182.121094 188.203125 182.015625 188.0625 C 181.933594 187.675781 182.503906 187.734375 182.535156 187.988281 Z M 184.09375 187.382812 C 184.109375 187.605469 183.765625 187.582031 183.816406 187.34375 C 183.902344 187.25 184.015625 187.34375 184.09375 187.382812 Z M 181.574219 187.261719 C 181.753906 187.230469 181.8125 187.441406 181.734375 187.546875 C 181.554688 187.578125 181.496094 187.367188 181.574219 187.261719 Z M 181.894531 186.984375 C 181.742188 187.160156 181.457031 186.996094 181.496094 186.746094 C 181.691406 186.621094 181.882812 186.792969 181.894531 186.984375 Z M 177.25 181.460938 C 177.484375 181.394531 177.691406 181.460938 177.730469 181.699219 C 177.898438 182.691406 176.222656 181.738281 177.25 181.460938 Z M 174.609375 171.894531 C 174.871094 171.863281 175.183594 171.921875 175.210938 172.253906 C 175.265625 172.898438 174.125 172.875 174.132812 172.292969 C 174.132812 172.097656 174.226562 171.941406 174.609375 171.894531 Z M 180.253906 177.257812 C 180.253906 177.6875 179.546875 177.71875 179.492188 177.414062 C 179.433594 177.105469 180.082031 176.894531 180.253906 177.257812 Z M 208.59375 176.734375 C 208.507812 176.921875 208.375 177.050781 208.191406 177.136719 C 208.332031 177.621094 207.878906 177.765625 207.390625 177.738281 C 207.0625 177.394531 207.574219 177.144531 207.949219 177.136719 C 208.164062 177.007812 208.25 176.742188 208.59375 176.734375 Z M 181.976562 174.8125 C 182.050781 175.113281 181.757812 175.140625 181.574219 175.058594 C 181.382812 174.765625 181.808594 174.640625 181.976562 174.8125 Z M 177.25 168.53125 C 177.195312 168.082031 177.773438 168.144531 177.773438 168.414062 C 177.769531 168.613281 177.464844 168.691406 177.25 168.53125 Z M 201.589844 167.695312 C 201.515625 167.890625 201.078125 167.90625 201.066406 167.652344 C 201.050781 167.40625 201.648438 167.421875 201.589844 167.695312 Z M 202.628906 166.769531 C 202.644531 167.121094 201.996094 166.960938 202.1875 166.691406 C 202.304688 166.609375 202.59375 166.636719 202.628906 166.769531 Z M 194.34375 166.132812 C 194.320312 166.296875 194.179688 166.339844 193.984375 166.332031 C 193.644531 166.097656 194.210938 165.789062 194.34375 166.132812 Z M 206.148438 165.011719 C 206.144531 165.207031 205.90625 165.167969 205.707031 165.167969 C 205.644531 164.917969 206.023438 164.945312 206.148438 165.011719 Z M 203.148438 164.972656 C 203.433594 164.839844 203.859375 165.101562 203.832031 165.40625 C 203.761719 166.175781 202.4375 165.28125 203.148438 164.972656 Z M 207.667969 163.851562 C 207.542969 164.023438 207.214844 163.976562 207.070312 163.851562 C 207.089844 163.382812 207.640625 163.449219 207.667969 163.851562 Z M 178.53125 163.769531 C 178.121094 163.996094 177.707031 163.632812 177.730469 163.171875 C 178.035156 162.800781 178.65625 163.207031 178.53125 163.769531 Z M 206.390625 162.648438 C 206.480469 162.804688 206.550781 163.046875 206.425781 163.207031 C 206.128906 163.242188 206.066406 163.035156 206.066406 162.765625 C 206.132812 162.6875 206.21875 162.621094 206.390625 162.648438 Z M 197.945312 162.648438 C 198.355469 162.550781 198.527344 162.71875 198.546875 162.929688 C 198.578125 163.414062 197.691406 163.546875 197.582031 163.125 C 197.496094 162.789062 197.695312 162.707031 197.945312 162.648438 Z M 186.898438 158.003906 C 186.960938 157.785156 187.261719 157.929688 187.257812 158.125 C 187.113281 158.265625 186.984375 158.128906 186.898438 158.003906 Z M 184.496094 157.847656 C 184.785156 157.738281 185.128906 157.789062 185.175781 158.042969 C 185.335938 158.929688 183.441406 158.234375 184.496094 157.847656 Z M 187.859375 156.441406 C 187.882812 156.675781 187.425781 156.636719 187.335938 156.523438 C 187.335938 156.46875 187.335938 156.414062 187.335938 156.367188 C 187.460938 156.300781 187.839844 156.273438 187.859375 156.441406 Z M 188.21875 156.285156 C 188.1875 156.480469 188.1875 156.53125 188.21875 156.726562 C 188.132812 156.808594 187.953125 156.757812 187.898438 156.683594 C 187.871094 156.4375 188.046875 156.207031 188.21875 156.285156 Z M 179.695312 156.882812 C 179.117188 157.300781 178.339844 156.683594 178.53125 156.046875 C 178.765625 155.289062 180.332031 156.078125 179.695312 156.882812 Z M 188.660156 155.566406 C 188.714844 155.800781 188.492188 156.082031 188.257812 156.164062 C 188.152344 155.875 188.414062 155.632812 188.660156 155.566406 Z M 186.816406 155.363281 C 186.597656 155.457031 186.226562 155.195312 186.378906 154.925781 C 186.617188 154.804688 186.957031 155.105469 186.816406 155.363281 Z M 188.421875 153.480469 C 188.632812 153.492188 188.738281 153.617188 188.78125 153.800781 C 188.605469 154.019531 188.257812 153.714844 188.421875 153.480469 Z M 187.136719 153.601562 C 186.859375 153.8125 186.515625 153.503906 186.457031 153.242188 C 186.625 152.832031 187.179688 153.203125 187.136719 153.601562 Z M 189.859375 151.117188 C 190.089844 151.074219 190.207031 151.316406 190.097656 151.484375 C 189.867188 151.527344 189.753906 151.289062 189.859375 151.117188 Z M 190.980469 150.960938 C 191.105469 151.042969 191.070312 151.308594 190.980469 151.402344 C 190.808594 151.421875 190.722656 151.363281 190.65625 151.28125 C 190.648438 151.054688 190.753906 150.949219 190.980469 150.960938 Z M 197.863281 151.082031 C 197.863281 151.171875 197.863281 151.265625 197.863281 151.363281 C 197.195312 151.855469 197.246094 150.480469 197.863281 151.082031 Z M 203.347656 150.761719 C 203.65625 151.238281 202.585938 151.359375 202.746094 150.804688 C 202.863281 150.671875 203.203125 150.628906 203.347656 150.761719 Z M 199.1875 149.277344 C 199.136719 149.464844 199.183594 149.730469 199.066406 149.839844 C 198.492188 149.90625 198.785156 148.773438 199.1875 149.277344 Z M 189.617188 153.28125 C 189.613281 153.382812 189.683594 153.40625 189.699219 153.480469 C 189.972656 153.503906 190.070312 152.960938 189.976562 152.882812 C 190.003906 153.035156 189.824219 153.238281 189.617188 153.28125 Z M 189.101562 154.925781 C 189.175781 154.933594 189.1875 154.878906 189.257812 154.886719 C 189.253906 154.824219 189.273438 154.734375 189.21875 154.722656 C 189.183594 154.792969 189.058594 154.777344 189.101562 154.925781 Z M 190.777344 161.167969 C 190.800781 164.238281 190.914062 167.949219 190.777344 171.171875 C 190.730469 172.371094 190.945312 173.574219 191.023438 174.738281 C 191.039062 175.035156 190.984375 175.34375 191.058594 175.539062 C 191.148438 175.761719 191.382812 175.847656 191.457031 176.015625 C 192.058594 177.253906 190.394531 178.046875 189.699219 177.21875 C 189.269531 176.707031 189.476562 175.90625 189.9375 175.574219 C 189.902344 174.8125 189.8125 174.046875 189.78125 173.257812 C 189.726562 172.183594 189.574219 171.050781 189.582031 169.976562 C 189.585938 167.324219 189.796875 164.617188 189.582031 162.003906 C 185.699219 167.835938 181.160156 173.21875 177.289062 179.015625 C 176 180.960938 174.492188 182.746094 172.96875 184.503906 C 172.960938 184.632812 173.148438 184.675781 173.046875 184.78125 C 172.765625 184.675781 172.519531 185.003906 172.40625 185.304688 C 173.761719 185.113281 175.417969 185.378906 176.890625 185.265625 C 177.417969 185.222656 177.796875 184.828125 178.335938 184.78125 C 179.847656 184.644531 180.75 185.640625 180.816406 187.222656 C 180.875 187.316406 180.992188 186.980469 181.132812 187.144531 C 181.148438 187.429688 180.9375 187.636719 180.773438 187.621094 C 180.964844 187.757812 180.765625 187.960938 180.691406 188.0625 C 181.039062 188.15625 180.996094 188.40625 181.25 188.542969 C 181.316406 188.367188 181.332031 188.144531 181.535156 188.105469 C 181.480469 188.503906 181.230469 188.703125 180.855469 188.785156 C 180.75 188.675781 180.855469 188.546875 180.890625 188.464844 C 180.789062 188.425781 180.550781 188.390625 180.453125 188.464844 C 180.402344 188.601562 180.371094 188.753906 180.253906 188.824219 C 180.429688 188.910156 180.609375 189 180.652344 189.222656 C 180.402344 189.261719 180.148438 189.136719 179.972656 189.386719 C 180.179688 189.363281 180.433594 189.210938 180.496094 189.46875 C 180.300781 189.835938 179.863281 189.363281 179.695312 189.625 C 179.628906 189.871094 179.894531 189.859375 179.933594 190.105469 C 179.820312 190.210938 179.722656 190.082031 179.613281 190.066406 C 179.609375 190.191406 179.738281 190.179688 179.695312 190.34375 C 179.582031 190.402344 179.511719 190.507812 179.328125 190.507812 C 179.328125 190.652344 179.640625 190.617188 179.492188 190.785156 C 179.1875 190.855469 178.59375 190.316406 178.332031 190.785156 C 178.585938 190.816406 178.714844 190.832031 178.894531 190.867188 C 178.566406 191.074219 178.726562 191.765625 178.253906 191.824219 C 178.183594 191.671875 178.316406 191.53125 178.371094 191.386719 C 178.242188 191.441406 178.035156 191.421875 177.847656 191.425781 C 177.894531 191.589844 178.203125 191.367188 178.214844 191.628906 C 178.136719 191.855469 177.816406 191.699219 177.652344 191.664062 C 177.644531 191.808594 177.511719 191.816406 177.492188 191.941406 C 178.1875 191.96875 177.550781 192.679688 177.210938 192.265625 C 176.515625 193.140625 175.835938 194.039062 175.128906 194.910156 C 175.144531 195.058594 175.308594 195.050781 175.246094 195.269531 C 175.132812 195.363281 174.941406 195.390625 174.730469 195.390625 C 171.617188 199.332031 168.28125 203.269531 165.445312 207.351562 C 168.101562 205.21875 170.828125 203.179688 173.570312 201.109375 C 174.925781 200.085938 176.222656 198.9375 177.609375 197.945312 C 179.019531 196.945312 180.441406 195.988281 181.8125 194.949219 C 183.1875 193.910156 184.605469 192.960938 186.058594 192.023438 C 186.769531 191.5625 187.398438 190.972656 188.097656 190.460938 C 191.605469 187.910156 195.355469 185.804688 198.507812 182.859375 C 197.054688 183.027344 195.222656 183.140625 193.582031 183.222656 C 191.742188 183.308594 189.675781 183.695312 188.136719 183.777344 C 187.332031 183.828125 186.601562 183.457031 186.65625 182.617188 C 186.710938 181.855469 187.414062 181.59375 188.257812 181.542969 C 188.527344 180.5 189.40625 179.792969 190.179688 179.140625 C 192.558594 177.125 194.652344 174.992188 196.945312 172.890625 C 198.390625 171.570312 200.097656 170.339844 201.664062 168.972656 C 202.753906 168.027344 204.113281 167.09375 205.265625 166.085938 C 205.523438 165.871094 206.378906 165.15625 206.386719 165.011719 C 206.386719 164.988281 206.023438 164.726562 206.1875 164.570312 C 206.261719 164.515625 206.300781 164.417969 206.425781 164.410156 C 206.34375 164.625 206.433594 164.777344 206.589844 164.847656 C 207.140625 164.355469 207.714844 163.894531 208.226562 163.367188 C 208.082031 163.136719 208.121094 162.929688 208.347656 162.804688 C 207.546875 162.847656 208.226562 161.949219 208.550781 162.488281 C 208.515625 162.761719 208.507812 162.734375 208.511719 162.929688 C 208.761719 162.984375 208.96875 162.710938 209.148438 162.566406 C 208.828125 162.460938 208.757812 161.875 209.230469 161.886719 C 209.304688 162 209.414062 162.074219 209.511719 162.167969 C 209.933594 161.921875 209.867188 162.164062 210.230469 161.886719 C 210.347656 162.109375 210.578125 161.914062 210.753906 161.847656 C 210.839844 161.449219 210.492188 161.277344 210.230469 161.367188 C 210.324219 161.488281 210.644531 161.339844 210.589844 161.691406 C 210.390625 161.816406 209.753906 161.777344 209.671875 161.527344 C 209.675781 161.320312 209.953125 161.378906 210.03125 161.25 C 207.652344 160.613281 205.238281 159.597656 202.746094 159.007812 C 201.433594 158.691406 200.113281 158.515625 198.867188 158.125 C 197.636719 157.738281 196.492188 157.238281 195.261719 156.964844 C 195.148438 157.246094 194.953125 157.453125 194.5 157.40625 C 194.582031 157.820312 193.914062 157.867188 193.742188 158.085938 C 193.558594 158.316406 193.65625 158.554688 193.378906 158.601562 C 193.199219 158.636719 193.183594 158.457031 193.019531 158.445312 C 192.828125 158.433594 192.710938 158.5 192.621094 158.722656 C 192.628906 158.882812 192.898438 158.765625 192.863281 158.96875 C 192.738281 159.136719 192.578125 159.265625 192.300781 159.285156 C 192.230469 159.359375 192.296875 159.574219 192.183594 159.605469 C 192.023438 159.726562 191.84375 159.660156 191.621094 159.648438 C 191.429688 159.925781 191.609375 160.328125 191.21875 160.40625 C 191.195312 160.550781 191.355469 160.753906 191.179688 160.808594 C 190.792969 160.863281 191.027344 160.398438 190.980469 160.285156 C 190.859375 160.214844 190.722656 160.417969 190.738281 160.605469 C 191.042969 160.726562 191.066406 161.015625 190.777344 161.167969 Z M 191.824219 159.164062 C 191.949219 159.160156 192.128906 159.207031 192.101562 159.042969 C 192.03125 159.050781 191.976562 159.039062 191.941406 159.007812 C 191.929688 159.089844 191.832031 159.082031 191.824219 159.164062 Z M 191.261719 159.886719 C 191.300781 159.746094 191.59375 159.660156 191.5 159.527344 C 191.453125 159.652344 191.1875 159.769531 191.261719 159.886719 Z M 184.015625 162.445312 C 184.46875 162.675781 184.484375 161.835938 184.855469 161.726562 C 184.742188 161.722656 184.691406 161.652344 184.578125 161.644531 C 184.394531 161.917969 184.152344 162.128906 184.015625 162.445312 Z M 217.714844 170.171875 C 217.804688 170.078125 217.789062 169.902344 217.714844 169.773438 C 217.75 169.914062 217.597656 170.074219 217.714844 170.171875 Z M 209.511719 174.976562 C 209.632812 174.949219 209.71875 174.890625 209.828125 174.855469 C 209.828125 174.785156 209.839844 174.730469 209.871094 174.695312 C 209.71875 174.753906 209.609375 174.863281 209.511719 174.976562 Z M 179.171875 189.542969 C 179.304688 189.554688 179.339844 189.472656 179.492188 189.503906 C 179.363281 189.351562 179.695312 189.191406 179.492188 189.101562 C 179.390625 189.253906 179.269531 189.386719 179.171875 189.542969 Z M 201.910156 195.667969 C 202.035156 195.644531 202.09375 195.695312 202.1875 195.710938 C 202.1875 195.628906 202.1875 195.546875 202.1875 195.472656 C 202.046875 195.488281 201.96875 195.570312 201.910156 195.667969 Z M 200.984375 195.75 C 201.125 195.714844 201.140625 195.808594 201.265625 195.785156 C 201.230469 195.660156 201.371094 195.703125 201.386719 195.628906 C 201.25 195.53125 201.027344 195.625 200.984375 195.75 Z M 174.851562 212.878906 C 174.992188 212.902344 175.066406 212.980469 175.171875 213.042969 C 175.214844 212.921875 175.242188 212.792969 175.246094 212.640625 C 175.050781 212.65625 174.941406 212.757812 174.851562 212.878906 Z M 174.851562 212.878906 "/></g><g style="fill:#ffc24b;fill-opacity:1;"><g transform="translate(212.685576, 214.817213)"><path style="stroke:none" d="M 51.375 -34.34375 L 51.109375 -32.453125 C 51.046875 -31.609375 50.65625 -30.867188 49.9375 -30.234375 C 49.21875 -29.609375 48.5 -29.328125 47.78125 -29.390625 C 45.675781 -29.503906 43.554688 -29.648438 41.421875 -29.828125 C 39.285156 -30.015625 37.164062 -30.195312 35.0625 -30.375 C 37.53125 -26.707031 39.695312 -22.984375 41.5625 -19.203125 C 42.757812 -16.617188 43.957031 -13.925781 45.15625 -11.125 C 46.363281 -8.332031 46.785156 -5.46875 46.421875 -2.53125 C 46.296875 -1.5625 45.8125 -0.941406 44.96875 -0.671875 C 44.132812 -0.398438 43.328125 -0.414062 42.546875 -0.71875 C 42.128906 -0.65625 41.722656 -0.640625 41.328125 -0.671875 C 40.941406 -0.703125 40.535156 -0.804688 40.109375 -0.984375 C 39.992188 -0.984375 39.9375 -1.015625 39.9375 -1.078125 C 39.570312 -0.722656 39.179688 -0.632812 38.765625 -0.8125 C 37.984375 -2.914062 37.140625 -5.03125 36.234375 -7.15625 C 35.335938 -9.289062 34.4375 -11.382812 33.53125 -13.4375 C 33.226562 -14.21875 32.773438 -15.3125 32.171875 -16.71875 C 31.578125 -18.132812 30.945312 -19.609375 30.28125 -21.140625 C 29.625 -22.671875 28.992188 -23.976562 28.390625 -25.0625 C 27.910156 -26.144531 27.429688 -27.078125 26.953125 -27.859375 L 26.953125 -27.9375 C 26.410156 -28.71875 25.898438 -29.5625 25.421875 -30.46875 C 24.273438 -30.53125 23.097656 -30.585938 21.890625 -30.640625 C 20.691406 -30.703125 19.492188 -30.765625 18.296875 -30.828125 C 18.535156 -28.785156 18.742188 -26.742188 18.921875 -24.703125 C 19.109375 -22.660156 19.234375 -20.585938 19.296875 -18.484375 C 19.410156 -16.253906 19.539062 -14.015625 19.6875 -11.765625 C 19.84375 -9.515625 19.859375 -7.273438 19.734375 -5.046875 C 19.796875 -4.804688 19.828125 -4.550781 19.828125 -4.28125 C 19.828125 -4.007812 19.828125 -3.753906 19.828125 -3.515625 C 19.222656 -2.367188 18.53125 -1.46875 17.75 -0.8125 C 17.15625 -0.332031 16.46875 -0.09375 15.6875 -0.09375 C 14.90625 -0.09375 14.242188 -0.390625 13.703125 -0.984375 C 13.398438 -1.472656 13.21875 -1.957031 13.15625 -2.4375 C 12.800781 -2.375 12.441406 -2.476562 12.078125 -2.75 C 11.710938 -3.019531 11.53125 -3.394531 11.53125 -3.875 C 11.289062 -4.832031 11.1875 -5.835938 11.21875 -6.890625 C 11.25 -7.941406 11.207031 -8.953125 11.09375 -9.921875 L 10.28125 -15.859375 C 9.914062 -17.960938 9.550781 -20.082031 9.1875 -22.21875 C 8.832031 -24.351562 8.472656 -26.472656 8.109375 -28.578125 L 7.578125 -31.734375 C 7.515625 -31.734375 7.4375 -31.734375 7.34375 -31.734375 C 7.257812 -31.734375 7.15625 -31.734375 7.03125 -31.734375 C 7.03125 -32.085938 6.847656 -32.296875 6.484375 -32.359375 C 6.003906 -32.484375 5.507812 -32.632812 5 -32.8125 C 4.488281 -32.988281 3.992188 -33.171875 3.515625 -33.359375 L 5.59375 -33.625 C 4.6875 -33.976562 3.785156 -34.457031 2.890625 -35.0625 C 2.046875 -35.601562 1.578125 -36.367188 1.484375 -37.359375 C 1.398438 -38.347656 1.597656 -39.234375 2.078125 -40.015625 C 2.554688 -40.796875 3.242188 -41.1875 4.140625 -41.1875 C 4.441406 -41.25 4.726562 -41.28125 5 -41.28125 C 5.269531 -41.28125 5.523438 -41.28125 5.765625 -41.28125 C 5.460938 -42.84375 5.144531 -44.40625 4.8125 -45.96875 C 4.488281 -47.53125 4.144531 -49.0625 3.78125 -50.5625 C 4.5625 -51.164062 5.191406 -51.828125 5.671875 -52.546875 C 4.835938 -53.273438 4.222656 -54.207031 3.828125 -55.34375 C 3.441406 -56.488281 3.488281 -57.570312 3.96875 -58.59375 C 4.570312 -59.726562 5.472656 -60.414062 6.671875 -60.65625 C 7.867188 -60.90625 9.160156 -60.9375 10.546875 -60.75 C 11.929688 -60.570312 13.101562 -60.394531 14.0625 -60.21875 C 14.363281 -60.21875 14.632812 -60.097656 14.875 -59.859375 C 15.175781 -59.734375 15.488281 -59.609375 15.8125 -59.484375 C 16.144531 -59.367188 16.460938 -59.25 16.765625 -59.125 C 16.828125 -59.125 16.875 -59.109375 16.90625 -59.078125 C 16.9375 -59.054688 16.976562 -59.046875 17.03125 -59.046875 C 22.019531 -57.484375 26.78125 -55.300781 31.3125 -52.5 C 35.851562 -49.707031 40.316406 -46.8125 44.703125 -43.8125 C 45.304688 -43.332031 45.726562 -42.671875 45.96875 -41.828125 C 46.632812 -41.398438 47.265625 -40.945312 47.859375 -40.46875 C 48.460938 -39.988281 49.066406 -39.507812 49.671875 -39.03125 C 51.109375 -37.945312 51.675781 -36.382812 51.375 -34.34375 Z M 14.78125 -48.140625 C 14.84375 -48.078125 14.875 -47.984375 14.875 -47.859375 C 14.875 -47.742188 14.90625 -47.625 14.96875 -47.5 C 15.207031 -47.738281 15.488281 -47.84375 15.8125 -47.8125 C 16.144531 -47.789062 16.34375 -47.566406 16.40625 -47.140625 C 16.644531 -46.179688 16.867188 -45.234375 17.078125 -44.296875 C 17.285156 -43.367188 17.484375 -42.425781 17.671875 -41.46875 C 17.910156 -41.40625 18.148438 -41.375 18.390625 -41.375 C 18.628906 -41.375 18.867188 -41.34375 19.109375 -41.28125 C 19.234375 -41.820312 19.503906 -42.273438 19.921875 -42.640625 C 20.816406 -43.234375 21.726562 -43.410156 22.65625 -43.171875 C 23.59375 -42.929688 24.5 -42.523438 25.375 -41.953125 C 26.25 -41.390625 27.015625 -40.804688 27.671875 -40.203125 L 36.421875 -39.125 C 32.929688 -41.53125 29.382812 -43.644531 25.78125 -45.46875 C 22.175781 -47.300781 18.421875 -48.671875 14.515625 -49.578125 Z M 21.1875 -7.578125 C 21 -11.296875 20.800781 -15.03125 20.59375 -18.78125 C 20.382812 -22.539062 20.007812 -26.253906 19.46875 -29.921875 L 20.1875 -29.921875 C 20.664062 -27.335938 21.023438 -24.691406 21.265625 -21.984375 C 21.515625 -19.285156 21.757812 -16.582031 22 -13.875 C 22.113281 -12.257812 22.050781 -11.070312 21.8125 -10.3125 C 21.570312 -9.5625 21.363281 -8.648438 21.1875 -7.578125 Z M 21.1875 -7.578125 "/></g></g><g style="fill:#ffc24b;fill-opacity:1;"><g transform="translate(263.524738, 214.817213)"><path style="stroke:none" d="M 32.984375 -2.703125 C 32.628906 -2.828125 32.222656 -3.457031 31.765625 -4.59375 C 31.316406 -5.738281 30.835938 -7.148438 30.328125 -8.828125 C 29.816406 -10.515625 29.335938 -12.257812 28.890625 -14.0625 C 28.441406 -15.863281 28.035156 -17.484375 27.671875 -18.921875 C 27.304688 -20.367188 27.066406 -21.421875 26.953125 -22.078125 L 19.921875 -22 C 19.253906 -19.289062 18.679688 -16.597656 18.203125 -13.921875 C 17.722656 -11.253906 17.363281 -8.535156 17.125 -5.765625 C 17.125 -5.222656 16.867188 -4.953125 16.359375 -4.953125 C 15.847656 -4.953125 15.625 -5.222656 15.6875 -5.765625 C 15.925781 -8.472656 16.269531 -11.191406 16.71875 -13.921875 C 17.164062 -16.660156 17.8125 -19.351562 18.65625 -22 L 17.84375 -22 C 17.539062 -20.914062 17.238281 -19.609375 16.9375 -18.078125 C 16.644531 -16.546875 16.363281 -15.039062 16.09375 -13.5625 C 15.820312 -12.09375 15.59375 -10.863281 15.40625 -9.875 C 15.226562 -8.882812 15.140625 -8.390625 15.140625 -8.390625 L 14.609375 -4.328125 C 14.421875 -2.285156 13.726562 -0.816406 12.53125 0.078125 C 11.332031 0.984375 10.007812 1.347656 8.5625 1.171875 C 7.125 0.992188 5.90625 0.304688 4.90625 -0.890625 C 3.914062 -2.097656 3.570312 -3.753906 3.875 -5.859375 C 4.238281 -8.503906 4.660156 -11.144531 5.140625 -13.78125 C 5.617188 -16.425781 6.1875 -19.046875 6.84375 -21.640625 C 6.425781 -21.578125 6.003906 -21.53125 5.578125 -21.5 C 5.160156 -21.46875 4.773438 -21.453125 4.421875 -21.453125 C 4.535156 -21.753906 4.5625 -22.023438 4.5 -22.265625 C 3.0625 -22.628906 2.007812 -23.410156 1.34375 -24.609375 C 0.6875 -25.804688 0.507812 -27.140625 0.8125 -28.609375 C 1.113281 -30.085938 1.953125 -31.441406 3.328125 -32.671875 C 4.710938 -33.910156 6.757812 -34.738281 9.46875 -35.15625 C 10.125 -38.15625 10.84375 -41.113281 11.625 -44.03125 C 12.40625 -46.945312 13.367188 -49.785156 14.515625 -52.546875 C 15.054688 -53.753906 15.65625 -55.0625 16.3125 -56.46875 C 16.976562 -57.882812 17.804688 -59.117188 18.796875 -60.171875 C 19.785156 -61.222656 21.03125 -61.75 22.53125 -61.75 C 23.3125 -61.8125 24.09375 -61.597656 24.875 -61.109375 C 25.65625 -60.628906 26.226562 -60.03125 26.59375 -59.3125 C 27.914062 -59.25 29.007812 -58.78125 29.875 -57.90625 C 30.75 -57.039062 31.25 -55.882812 31.375 -54.4375 C 31.488281 -52.632812 31.632812 -50.816406 31.8125 -48.984375 C 32 -47.148438 32.179688 -45.363281 32.359375 -43.625 C 32.421875 -43.5625 32.484375 -43.53125 32.546875 -43.53125 C 32.597656 -45.09375 32.671875 -46.640625 32.765625 -48.171875 C 32.859375 -49.710938 32.992188 -51.234375 33.171875 -52.734375 C 33.171875 -52.972656 33.210938 -52.429688 33.296875 -51.109375 C 33.390625 -49.785156 33.492188 -48.085938 33.609375 -46.015625 C 33.734375 -43.941406 33.851562 -41.867188 33.96875 -39.796875 C 34.09375 -37.722656 34.25 -35.992188 34.4375 -34.609375 C 36.175781 -34.429688 37.523438 -33.847656 38.484375 -32.859375 C 39.453125 -31.867188 40.054688 -30.726562 40.296875 -29.4375 C 40.535156 -28.144531 40.414062 -26.863281 39.9375 -25.59375 C 39.457031 -24.332031 38.582031 -23.3125 37.3125 -22.53125 C 37.914062 -19.882812 38.546875 -16.894531 39.203125 -13.5625 C 39.867188 -10.226562 40.382812 -7.207031 40.75 -4.5 C 40.988281 -2.457031 40.820312 -0.910156 40.25 0.140625 C 39.675781 1.191406 38.921875 1.773438 37.984375 1.890625 C 37.054688 2.015625 36.125 1.6875 35.1875 0.90625 C 34.257812 0.125 33.523438 -1.078125 32.984375 -2.703125 Z M 19.65625 -33.71875 C 20.3125 -33.832031 21.164062 -33.90625 22.21875 -33.9375 C 23.269531 -33.96875 24.097656 -34.015625 24.703125 -34.078125 C 24.578125 -34.859375 24.4375 -35.96875 24.28125 -37.40625 C 24.132812 -38.851562 23.957031 -40.398438 23.75 -42.046875 C 23.539062 -43.703125 23.285156 -45.222656 22.984375 -46.609375 C 22.265625 -44.078125 21.632812 -41.820312 21.09375 -39.84375 C 20.550781 -37.863281 20.070312 -35.820312 19.65625 -33.71875 Z M 19.65625 -33.71875 "/></g></g><g style="fill:#ffc24b;fill-opacity:1;"><g transform="translate(303.456879, 214.817213)"><path style="stroke:none" d="M 51.46875 -53.09375 C 51.351562 -52.726562 51.234375 -52.425781 51.109375 -52.1875 C 51.046875 -51.40625 50.894531 -50.625 50.65625 -49.84375 C 50.414062 -49.0625 49.9375 -48.429688 49.21875 -47.953125 C 48.914062 -47.710938 48.460938 -47.53125 47.859375 -47.40625 C 47.617188 -47.164062 47.410156 -47.046875 47.234375 -47.046875 C 44.953125 -46.628906 42.664062 -46.207031 40.375 -45.78125 C 38.09375 -45.363281 35.8125 -45.003906 33.53125 -44.703125 C 33.53125 -42.722656 33.515625 -40.738281 33.484375 -38.75 C 33.453125 -36.769531 33.4375 -34.789062 33.4375 -32.8125 C 33.4375 -30.050781 33.453125 -27.300781 33.484375 -24.5625 C 33.515625 -21.832031 33.53125 -19.082031 33.53125 -16.3125 C 33.59375 -14.75 33.648438 -13.171875 33.703125 -11.578125 C 33.765625 -9.984375 33.828125 -8.40625 33.890625 -6.84375 C 33.828125 -5.769531 33.660156 -4.734375 33.390625 -3.734375 C 33.117188 -2.742188 32.566406 -1.921875 31.734375 -1.265625 L 31.734375 -1.4375 C 31.785156 -2.101562 31.8125 -2.75 31.8125 -3.375 C 31.8125 -4.007812 31.84375 -4.628906 31.90625 -5.234375 L 31.90625 -8.65625 C 31.726562 -7.875 31.578125 -6.910156 31.453125 -5.765625 C 31.335938 -4.628906 31.128906 -3.609375 30.828125 -2.703125 C 30.523438 -1.742188 29.894531 -1.019531 28.9375 -0.53125 C 27.976562 -0.0507812 27.015625 0.0625 26.046875 -0.1875 C 24.179688 -0.78125 22.945312 -1.960938 22.34375 -3.734375 C 21.75 -5.515625 21.390625 -7.273438 21.265625 -9.015625 C 21.148438 -11.296875 21.109375 -13.609375 21.140625 -15.953125 C 21.171875 -18.296875 21.210938 -20.609375 21.265625 -22.890625 C 21.390625 -25.179688 21.523438 -27.5 21.671875 -29.84375 C 21.828125 -32.1875 21.9375 -34.53125 22 -36.875 L 22.171875 -40.828125 L 22.171875 -43.71875 C 21.566406 -43.71875 20.976562 -43.71875 20.40625 -43.71875 C 19.84375 -43.71875 19.257812 -43.71875 18.65625 -43.71875 C 16.195312 -43.71875 13.796875 -43.804688 11.453125 -43.984375 C 10.484375 -44.109375 9.535156 -44.273438 8.609375 -44.484375 C 7.679688 -44.691406 6.796875 -45.035156 5.953125 -45.515625 C 5.347656 -45.941406 4.789062 -46.453125 4.28125 -47.046875 C 3.769531 -47.648438 3.363281 -48.3125 3.0625 -49.03125 C 2.164062 -49.507812 1.488281 -50.242188 1.03125 -51.234375 C 0.582031 -52.234375 0.476562 -53.273438 0.71875 -54.359375 C 1.019531 -55.253906 1.578125 -56.0625 2.390625 -56.78125 C 3.203125 -57.507812 4.085938 -57.8125 5.046875 -57.6875 C 7.515625 -57.445312 9.976562 -57.25 12.4375 -57.09375 C 14.90625 -56.945312 17.367188 -56.875 19.828125 -56.875 C 19.828125 -56.9375 19.84375 -56.984375 19.875 -57.015625 C 19.90625 -57.046875 19.921875 -57.09375 19.921875 -57.15625 C 15.054688 -57.445312 10.1875 -57.984375 5.3125 -58.765625 C 5.195312 -58.765625 5.15625 -58.851562 5.1875 -59.03125 C 5.21875 -59.21875 5.289062 -59.28125 5.40625 -59.21875 C 11.71875 -58.863281 18.023438 -58.742188 24.328125 -58.859375 C 30.640625 -58.984375 36.921875 -59.316406 43.171875 -59.859375 C 43.660156 -59.972656 44.144531 -60.046875 44.625 -60.078125 C 45.101562 -60.109375 45.550781 -60.15625 45.96875 -60.21875 C 46.207031 -60.21875 46.460938 -60.226562 46.734375 -60.25 C 47.003906 -60.28125 47.257812 -60.269531 47.5 -60.21875 C 48.164062 -60.332031 48.84375 -60.421875 49.53125 -60.484375 C 50.21875 -60.546875 50.894531 -60.609375 51.5625 -60.671875 C 51.976562 -60.722656 52.234375 -60.492188 52.328125 -59.984375 C 52.421875 -59.472656 52.222656 -59.160156 51.734375 -59.046875 C 51.441406 -59.046875 51.234375 -59.015625 51.109375 -58.953125 C 51.347656 -58.828125 51.53125 -58.707031 51.65625 -58.59375 C 52.675781 -57.988281 53.171875 -57.039062 53.140625 -55.75 C 53.109375 -54.457031 52.550781 -53.570312 51.46875 -53.09375 Z M 11.453125 -46.15625 C 13.015625 -46.03125 14.601562 -46.03125 16.21875 -46.15625 C 14.414062 -46.332031 12.613281 -46.582031 10.8125 -46.90625 C 9.007812 -47.238281 7.238281 -47.675781 5.5 -48.21875 C 6.21875 -47.5625 7.117188 -47.066406 8.203125 -46.734375 C 9.285156 -46.398438 10.367188 -46.207031 11.453125 -46.15625 Z M 11.453125 -46.15625 "/></g></g><g style="fill:#ffc24b;fill-opacity:1;"><g transform="translate(168.578093, 239.813055)"><path style="stroke:none" d="M 5.6875 -1.328125 L 5.6875 0 L 0.328125 0 L 0.328125 -1.0625 L 3.0625 -3.640625 C 3.351562 -3.910156 3.546875 -4.144531 3.640625 -4.34375 C 3.742188 -4.550781 3.796875 -4.75 3.796875 -4.9375 C 3.796875 -5.226562 3.695312 -5.445312 3.5 -5.59375 C 3.3125 -5.75 3.035156 -5.828125 2.671875 -5.828125 C 2.359375 -5.828125 2.078125 -5.765625 1.828125 -5.640625 C 1.578125 -5.523438 1.367188 -5.347656 1.203125 -5.109375 L 0.015625 -5.890625 C 0.285156 -6.296875 0.660156 -6.613281 1.140625 -6.84375 C 1.628906 -7.082031 2.191406 -7.203125 2.828125 -7.203125 C 3.347656 -7.203125 3.804688 -7.113281 4.203125 -6.9375 C 4.597656 -6.769531 4.90625 -6.523438 5.125 -6.203125 C 5.34375 -5.890625 5.453125 -5.523438 5.453125 -5.109375 C 5.453125 -4.722656 5.367188 -4.359375 5.203125 -4.015625 C 5.046875 -3.679688 4.734375 -3.300781 4.265625 -2.875 L 2.640625 -1.328125 Z M 5.6875 -1.328125 "/></g></g><g style="fill:#ffc24b;fill-opacity:1;"><g transform="translate(178.883372, 239.813055)"><path style="stroke:none" d="M 3.421875 0.125 C 2.835938 0.125 2.316406 -0.0195312 1.859375 -0.3125 C 1.398438 -0.601562 1.039062 -1.019531 0.78125 -1.5625 C 0.519531 -2.113281 0.390625 -2.769531 0.390625 -3.53125 C 0.390625 -4.300781 0.519531 -4.957031 0.78125 -5.5 C 1.039062 -6.050781 1.398438 -6.472656 1.859375 -6.765625 C 2.316406 -7.054688 2.835938 -7.203125 3.421875 -7.203125 C 4.015625 -7.203125 4.539062 -7.054688 5 -6.765625 C 5.457031 -6.472656 5.8125 -6.050781 6.0625 -5.5 C 6.320312 -4.957031 6.453125 -4.300781 6.453125 -3.53125 C 6.453125 -2.769531 6.320312 -2.113281 6.0625 -1.5625 C 5.8125 -1.019531 5.457031 -0.601562 5 -0.3125 C 4.539062 -0.0195312 4.015625 0.125 3.421875 0.125 Z M 3.421875 -1.265625 C 3.859375 -1.265625 4.195312 -1.445312 4.4375 -1.8125 C 4.6875 -2.1875 4.8125 -2.757812 4.8125 -3.53125 C 4.8125 -4.3125 4.6875 -4.882812 4.4375 -5.25 C 4.195312 -5.625 3.859375 -5.8125 3.421875 -5.8125 C 3.003906 -5.8125 2.671875 -5.625 2.421875 -5.25 C 2.171875 -4.882812 2.046875 -4.3125 2.046875 -3.53125 C 2.046875 -2.757812 2.171875 -2.1875 2.421875 -1.8125 C 2.671875 -1.445312 3.003906 -1.265625 3.421875 -1.265625 Z M 3.421875 -1.265625 "/></g></g><g style="fill:#ffc24b;fill-opacity:1;"><g transform="translate(190.087686, 239.813055)"><path style="stroke:none" d="M 5.6875 -1.328125 L 5.6875 0 L 0.328125 0 L 0.328125 -1.0625 L 3.0625 -3.640625 C 3.351562 -3.910156 3.546875 -4.144531 3.640625 -4.34375 C 3.742188 -4.550781 3.796875 -4.75 3.796875 -4.9375 C 3.796875 -5.226562 3.695312 -5.445312 3.5 -5.59375 C 3.3125 -5.75 3.035156 -5.828125 2.671875 -5.828125 C 2.359375 -5.828125 2.078125 -5.765625 1.828125 -5.640625 C 1.578125 -5.523438 1.367188 -5.347656 1.203125 -5.109375 L 0.015625 -5.890625 C 0.285156 -6.296875 0.660156 -6.613281 1.140625 -6.84375 C 1.628906 -7.082031 2.191406 -7.203125 2.828125 -7.203125 C 3.347656 -7.203125 3.804688 -7.113281 4.203125 -6.9375 C 4.597656 -6.769531 4.90625 -6.523438 5.125 -6.203125 C 5.34375 -5.890625 5.453125 -5.523438 5.453125 -5.109375 C 5.453125 -4.722656 5.367188 -4.359375 5.203125 -4.015625 C 5.046875 -3.679688 4.734375 -3.300781 4.265625 -2.875 L 2.640625 -1.328125 Z M 5.6875 -1.328125 "/></g></g><g style="fill:#ffc24b;fill-opacity:1;"><g transform="translate(200.392964, 239.813055)"><path style="stroke:none" d="M 2.828125 -4.421875 C 3.816406 -4.421875 4.546875 -4.21875 5.015625 -3.8125 C 5.492188 -3.414062 5.734375 -2.882812 5.734375 -2.21875 C 5.734375 -1.789062 5.625 -1.398438 5.40625 -1.046875 C 5.195312 -0.691406 4.867188 -0.40625 4.421875 -0.1875 C 3.984375 0.0195312 3.441406 0.125 2.796875 0.125 C 2.296875 0.125 1.804688 0.0625 1.328125 -0.0625 C 0.847656 -0.195312 0.4375 -0.390625 0.09375 -0.640625 L 0.75 -1.890625 C 1.019531 -1.691406 1.328125 -1.535156 1.671875 -1.421875 C 2.023438 -1.304688 2.390625 -1.25 2.765625 -1.25 C 3.171875 -1.25 3.488281 -1.328125 3.71875 -1.484375 C 3.957031 -1.648438 4.078125 -1.878906 4.078125 -2.171875 C 4.078125 -2.472656 3.953125 -2.703125 3.703125 -2.859375 C 3.460938 -3.015625 3.039062 -3.09375 2.4375 -3.09375 L 0.625 -3.09375 L 0.984375 -7.078125 L 5.3125 -7.078125 L 5.3125 -5.765625 L 2.359375 -5.765625 L 2.25 -4.421875 Z M 2.828125 -4.421875 "/></g></g><g style="fill:#ffc24b;fill-opacity:1;"><g transform="translate(15.50759, 213.749986)"><path style="stroke:none" d="M 50.125 -36.5 C 49.519531 -34.9375 48.867188 -33.40625 48.171875 -31.90625 C 47.484375 -30.40625 46.691406 -28.960938 45.796875 -27.578125 C 43.503906 -23.796875 40.796875 -20.492188 37.671875 -17.671875 C 36.890625 -16.828125 36.046875 -15.984375 35.140625 -15.140625 C 34.242188 -14.296875 33.285156 -13.546875 32.265625 -12.890625 C 30.648438 -11.742188 28.953125 -10.71875 27.171875 -9.8125 C 25.398438 -8.914062 23.554688 -8.226562 21.640625 -7.75 L 20.640625 -7.484375 C 19.679688 -7.242188 18.691406 -7.03125 17.671875 -6.84375 C 16.648438 -6.664062 15.628906 -6.578125 14.609375 -6.578125 C 14.898438 -6.273438 15.554688 -6.15625 16.578125 -6.21875 C 17.609375 -6.28125 18.632812 -6.398438 19.65625 -6.578125 C 20.675781 -6.753906 21.304688 -6.875 21.546875 -6.9375 C 23.648438 -7.476562 25.660156 -8.257812 27.578125 -9.28125 C 28.484375 -9.707031 29.804688 -10.503906 31.546875 -11.671875 C 33.285156 -12.847656 35.207031 -14.394531 37.3125 -16.3125 C 39.414062 -18.238281 41.488281 -20.492188 43.53125 -23.078125 C 45.582031 -25.660156 47.359375 -28.601562 48.859375 -31.90625 C 48.972656 -31.664062 49.09375 -31.488281 49.21875 -31.375 C 49.039062 -30.644531 48.875 -29.921875 48.71875 -29.203125 C 48.570312 -28.484375 48.378906 -27.765625 48.140625 -27.046875 L 47.859375 -26.234375 C 47.804688 -26.046875 47.734375 -25.863281 47.640625 -25.6875 C 47.546875 -25.507812 47.441406 -25.332031 47.328125 -25.15625 C 45.816406 -22.8125 44.175781 -20.597656 42.40625 -18.515625 C 40.632812 -16.441406 38.664062 -14.535156 36.5 -12.796875 C 34.582031 -11.296875 32.539062 -9.972656 30.375 -8.828125 C 28.207031 -7.691406 25.894531 -6.820312 23.4375 -6.21875 C 21.09375 -5.675781 18.71875 -5.40625 16.3125 -5.40625 C 15.957031 -5.46875 15.523438 -5.570312 15.015625 -5.71875 C 14.503906 -5.875 14.21875 -6.160156 14.15625 -6.578125 C 13.25 -6.640625 12.359375 -6.773438 11.484375 -6.984375 C 10.617188 -7.191406 9.765625 -7.535156 8.921875 -8.015625 C 6.941406 -9.160156 5.347656 -10.875 4.140625 -13.15625 C 1.742188 -15.738281 0.332031 -18.773438 -0.09375 -22.265625 C -0.632812 -25.867188 -0.1875 -29.351562 1.25 -32.71875 C 2.695312 -36.082031 4.5625 -39.085938 6.84375 -41.734375 C 8.945312 -44.140625 11.320312 -46.269531 13.96875 -48.125 C 16.613281 -49.988281 19.4375 -51.40625 22.4375 -52.375 C 22.5625 -52.96875 22.953125 -53.359375 23.609375 -53.546875 C 26.859375 -54.390625 30.222656 -55.003906 33.703125 -55.390625 C 37.191406 -55.785156 40.59375 -55.648438 43.90625 -54.984375 C 44.675781 -54.867188 45.539062 -54.644531 46.5 -54.3125 C 47.46875 -53.976562 48.25 -53.492188 48.84375 -52.859375 C 49.445312 -52.234375 49.570312 -51.378906 49.21875 -50.296875 C 49.039062 -49.816406 48.738281 -49.484375 48.3125 -49.296875 C 47.894531 -49.117188 47.445312 -48.972656 46.96875 -48.859375 C 47.082031 -48.617188 47.050781 -48.363281 46.875 -48.09375 C 46.695312 -47.820312 46.457031 -47.6875 46.15625 -47.6875 C 45.1875 -47.75 44.191406 -47.75 43.171875 -47.6875 C 42.148438 -47.625 41.128906 -47.625 40.109375 -47.6875 C 39.210938 -47.6875 38.3125 -47.65625 37.40625 -47.59375 C 36.507812 -47.53125 35.609375 -47.441406 34.703125 -47.328125 C 31.035156 -46.785156 27.550781 -45.644531 24.25 -43.90625 C 18.414062 -40.71875 14.117188 -36.148438 11.359375 -30.203125 C 10.691406 -28.753906 10.117188 -27.21875 9.640625 -25.59375 C 9.160156 -23.976562 8.921875 -22.359375 8.921875 -20.734375 C 8.859375 -19.410156 9.050781 -18.085938 9.5 -16.765625 C 9.957031 -15.441406 10.726562 -14.453125 11.8125 -13.796875 L 12.984375 -13.515625 C 14.066406 -13.335938 15.144531 -13.289062 16.21875 -13.375 C 17.300781 -13.46875 18.382812 -13.632812 19.46875 -13.875 C 19.769531 -14 20.082031 -14.117188 20.40625 -14.234375 C 20.738281 -14.359375 21.023438 -14.453125 21.265625 -14.515625 C 24.210938 -15.773438 26.859375 -17.546875 29.203125 -19.828125 C 30.523438 -21.085938 31.726562 -22.421875 32.8125 -23.828125 C 33.894531 -25.242188 34.914062 -26.707031 35.875 -28.21875 C 36.351562 -28.9375 36.785156 -29.65625 37.171875 -30.375 C 37.566406 -31.09375 37.976562 -31.816406 38.40625 -32.546875 L 38.046875 -32.546875 C 37.078125 -32.304688 36.097656 -32.09375 35.109375 -31.90625 C 34.117188 -31.726562 33.113281 -31.519531 32.09375 -31.28125 C 30.050781 -30.851562 28.035156 -30.335938 26.046875 -29.734375 C 24.066406 -29.140625 22.054688 -28.570312 20.015625 -28.03125 C 18.753906 -27.726562 17.703125 -27.984375 16.859375 -28.796875 C 16.015625 -29.609375 15.59375 -30.597656 15.59375 -31.765625 C 15.59375 -32.941406 16.164062 -33.832031 17.3125 -34.4375 L 17.84375 -34.703125 C 17.78125 -35.421875 17.914062 -36.109375 18.25 -36.765625 C 18.582031 -37.429688 19.195312 -37.882812 20.09375 -38.125 C 20.15625 -38.1875 20.234375 -38.21875 20.328125 -38.21875 C 20.421875 -38.21875 20.492188 -38.25 20.546875 -38.3125 C 22.585938 -38.914062 24.644531 -39.484375 26.71875 -40.015625 C 28.800781 -40.554688 30.863281 -41.070312 32.90625 -41.5625 C 35.007812 -42.039062 37.097656 -42.550781 39.171875 -43.09375 C 41.242188 -43.632812 43.332031 -44.023438 45.4375 -44.265625 C 46.507812 -44.378906 47.539062 -44.164062 48.53125 -43.625 C 49.53125 -43.082031 50.179688 -42.269531 50.484375 -41.1875 C 50.722656 -40.40625 50.796875 -39.609375 50.703125 -38.796875 C 50.609375 -37.992188 50.414062 -37.226562 50.125 -36.5 Z M 50.125 -36.5 "/></g></g><g style="fill:#ffc24b;fill-opacity:1;"><g transform="translate(63.552391, 213.749986)"><path style="stroke:none" d="M 51.921875 -51.734375 C 50.597656 -49.335938 49.125 -47.007812 47.5 -44.75 C 45.875 -42.5 44.34375 -40.203125 42.90625 -37.859375 C 42.789062 -37.679688 42.671875 -37.5 42.546875 -37.3125 C 42.421875 -37.132812 42.300781 -36.957031 42.1875 -36.78125 C 42.664062 -35.8125 42.9375 -34.753906 43 -33.609375 C 43.0625 -32.472656 42.609375 -31.515625 41.640625 -30.734375 C 41.585938 -30.671875 41.53125 -30.640625 41.46875 -30.640625 C 41.40625 -30.640625 41.34375 -30.613281 41.28125 -30.5625 C 41.164062 -29.957031 40.957031 -29.503906 40.65625 -29.203125 C 39.75 -28.359375 38.515625 -28 36.953125 -28.125 L 34.703125 -24.0625 C 32.054688 -19.4375 29.5625 -14.722656 27.21875 -9.921875 C 26.625 -8.773438 26.039062 -7.597656 25.46875 -6.390625 C 24.894531 -5.191406 24.25 -4.050781 23.53125 -2.96875 C 23.101562 -2.25 22.585938 -1.617188 21.984375 -1.078125 C 21.390625 -0.535156 20.640625 -0.207031 19.734375 -0.09375 C 19.441406 -0.09375 19.296875 -0.210938 19.296875 -0.453125 C 18.390625 -0.0234375 17.378906 0.0507812 16.265625 -0.21875 C 15.160156 -0.488281 14.289062 -1.070312 13.65625 -1.96875 C 13.019531 -2.875 12.882812 -3.960938 13.25 -5.234375 C 13.664062 -6.492188 14.160156 -7.753906 14.734375 -9.015625 C 15.304688 -10.273438 15.863281 -11.503906 16.40625 -12.703125 C 16.820312 -13.546875 17.210938 -14.390625 17.578125 -15.234375 C 17.941406 -16.078125 18.332031 -16.890625 18.75 -17.671875 C 18.6875 -17.785156 18.609375 -17.898438 18.515625 -18.015625 C 18.429688 -18.140625 18.359375 -18.265625 18.296875 -18.390625 C 17.878906 -17.609375 17.472656 -16.828125 17.078125 -16.046875 C 16.691406 -15.265625 16.316406 -14.453125 15.953125 -13.609375 C 14.691406 -11.023438 13.519531 -8.410156 12.4375 -5.765625 C 12.4375 -6.429688 12.46875 -7.078125 12.53125 -7.703125 C 12.59375 -8.335938 12.648438 -8.957031 12.703125 -9.5625 C 13.546875 -11.476562 14.375 -13.351562 15.1875 -15.1875 C 16 -17.019531 16.828125 -18.867188 17.671875 -20.734375 C 17.609375 -21.515625 17.816406 -22.328125 18.296875 -23.171875 L 20.375 -26.328125 C 20.488281 -26.566406 20.546875 -26.6875 20.546875 -26.6875 C 21.753906 -29.03125 23.046875 -31.429688 24.421875 -33.890625 C 23.703125 -34.253906 23.039062 -34.613281 22.4375 -34.96875 C 21.84375 -35.332031 21.425781 -35.578125 21.1875 -35.703125 C 19.5 -36.722656 17.828125 -37.757812 16.171875 -38.8125 C 14.523438 -39.863281 12.832031 -40.867188 11.09375 -41.828125 C 10.726562 -42.066406 10.457031 -42.21875 10.28125 -42.28125 C 9.851562 -42.457031 9.429688 -42.648438 9.015625 -42.859375 C 8.597656 -43.066406 8.175781 -43.289062 7.75 -43.53125 C 7.394531 -43.78125 7.019531 -43.992188 6.625 -44.171875 C 6.238281 -44.347656 5.832031 -44.523438 5.40625 -44.703125 L 5.140625 -45.25 C 5.015625 -45.25 4.894531 -45.3125 4.78125 -45.4375 C 4.113281 -45.914062 3.375 -46.4375 2.5625 -47 C 1.757812 -47.570312 1.097656 -48.234375 0.578125 -48.984375 C 0.0664062 -49.742188 -0.125 -50.601562 0 -51.5625 C 0.125 -52.101562 0.242188 -52.460938 0.359375 -52.640625 C -0.117188 -53.054688 -0.34375 -53.640625 -0.3125 -54.390625 C -0.28125 -55.148438 -0.0546875 -55.875 0.359375 -56.5625 C 0.773438 -57.25 1.253906 -57.65625 1.796875 -57.78125 C 2.285156 -57.894531 2.617188 -57.953125 2.796875 -57.953125 L 3.421875 -57.953125 C 4.203125 -57.953125 4.984375 -57.800781 5.765625 -57.5 C 6.546875 -57.207031 7.296875 -56.878906 8.015625 -56.515625 C 9.578125 -55.910156 11.109375 -55.28125 12.609375 -54.625 C 14.117188 -53.96875 15.59375 -53.273438 17.03125 -52.546875 C 19.320312 -51.410156 21.59375 -50.222656 23.84375 -48.984375 C 26.09375 -47.753906 28.269531 -46.445312 30.375 -45.0625 L 32.546875 -48.578125 C 33.203125 -49.609375 33.859375 -50.632812 34.515625 -51.65625 C 35.179688 -52.675781 35.84375 -53.695312 36.5 -54.71875 C 37.101562 -55.613281 37.734375 -56.554688 38.390625 -57.546875 C 39.054688 -58.546875 39.78125 -59.4375 40.5625 -60.21875 C 40.6875 -60.332031 40.867188 -60.359375 41.109375 -60.296875 C 41.347656 -60.242188 41.5 -60.125 41.5625 -59.9375 C 41.914062 -59.882812 42.210938 -59.707031 42.453125 -59.40625 C 42.691406 -59.101562 42.660156 -58.800781 42.359375 -58.5 C 40.859375 -56.457031 39.398438 -54.382812 37.984375 -52.28125 C 36.578125 -50.175781 35.179688 -48.039062 33.796875 -45.875 C 33.554688 -45.582031 33.347656 -45.253906 33.171875 -44.890625 C 32.992188 -44.523438 32.8125 -44.164062 32.625 -43.8125 C 32.570312 -43.8125 32.546875 -43.796875 32.546875 -43.765625 C 32.546875 -43.734375 32.546875 -43.71875 32.546875 -43.71875 C 32.597656 -43.78125 32.726562 -43.71875 32.9375 -43.53125 C 33.15625 -43.351562 33.265625 -43.265625 33.265625 -43.265625 C 33.265625 -43.265625 33.472656 -43.578125 33.890625 -44.203125 C 34.316406 -44.835938 34.785156 -45.578125 35.296875 -46.421875 C 35.804688 -47.265625 36.269531 -48 36.6875 -48.625 C 37.101562 -49.257812 37.34375 -49.609375 37.40625 -49.671875 C 38.613281 -51.410156 39.800781 -53.164062 40.96875 -54.9375 C 42.144531 -56.707031 43.539062 -58.253906 45.15625 -59.578125 C 45.519531 -59.941406 45.878906 -60.0625 46.234375 -59.9375 C 47.078125 -60.300781 48.007812 -60.378906 49.03125 -60.171875 C 50.050781 -59.960938 50.863281 -59.523438 51.46875 -58.859375 C 52.3125 -58.078125 52.773438 -57.128906 52.859375 -56.015625 C 52.953125 -54.910156 52.695312 -53.875 52.09375 -52.90625 C 52.21875 -52.425781 52.160156 -52.035156 51.921875 -51.734375 Z M 51.921875 -51.734375 "/></g></g><g style="fill:#ffc24b;fill-opacity:1;"><g transform="translate(111.597191, 213.749986)"><path style="stroke:none" d="M 55.171875 -9.1875 C 55.285156 -7.925781 55.265625 -6.664062 55.109375 -5.40625 C 54.960938 -4.144531 54.5625 -2.941406 53.90625 -1.796875 C 53.238281 -0.660156 52.195312 0.160156 50.78125 0.671875 C 49.375 1.179688 48.101562 0.867188 46.96875 -0.265625 C 45.945312 -0.503906 45.070312 -1.03125 44.34375 -1.84375 C 43.625 -2.65625 43.265625 -3.601562 43.265625 -4.6875 C 43.085938 -12.375 42.035156 -20.035156 40.109375 -27.671875 C 39.691406 -29.597656 39.269531 -31.503906 38.84375 -33.390625 C 38.425781 -35.285156 38.007812 -37.164062 37.59375 -39.03125 C 36.507812 -35.90625 35.457031 -32.550781 34.4375 -28.96875 C 33.414062 -25.394531 32.570312 -22.347656 31.90625 -19.828125 C 31.3125 -17.367188 30.726562 -14.847656 30.15625 -12.265625 C 29.582031 -9.679688 29.113281 -7.425781 28.75 -5.5 C 28.695312 -5.320312 28.625 -5.242188 28.53125 -5.265625 C 28.4375 -5.296875 28.390625 -5.34375 28.390625 -5.40625 C 28.328125 -4.988281 28.234375 -4.566406 28.109375 -4.140625 C 27.992188 -3.722656 27.878906 -3.273438 27.765625 -2.796875 C 27.523438 -2.191406 27.238281 -1.648438 26.90625 -1.171875 C 26.570312 -0.691406 26.046875 -0.363281 25.328125 -0.1875 C 24.785156 -0.0625 24.394531 -0.0859375 24.15625 -0.265625 C 23.613281 -0.265625 23.191406 -0.382812 22.890625 -0.625 C 22.535156 -0.382812 22.265625 -0.476562 22.078125 -0.90625 C 21.660156 -1.5625 21.347656 -2.21875 21.140625 -2.875 C 20.929688 -3.539062 20.734375 -4.234375 20.546875 -4.953125 L 16.671875 -18.75 C 16.253906 -20.25 15.847656 -21.75 15.453125 -23.25 C 15.066406 -24.757812 14.691406 -26.265625 14.328125 -27.765625 C 14.210938 -28.117188 14.09375 -28.476562 13.96875 -28.84375 C 13.851562 -29.207031 13.734375 -29.597656 13.609375 -30.015625 C 13.785156 -26.234375 13.945312 -22.390625 14.09375 -18.484375 C 14.25 -14.578125 14.359375 -10.726562 14.421875 -6.9375 C 14.484375 -5.613281 14.4375 -4.242188 14.28125 -2.828125 C 14.132812 -1.421875 13.34375 -0.390625 11.90625 0.265625 C 11.238281 0.566406 10.722656 0.507812 10.359375 0.09375 C 10.242188 -0.03125 10.15625 -0.148438 10.09375 -0.265625 C 8.832031 0.148438 7.78125 -0.0625 6.9375 -0.90625 C 6.15625 -1.738281 5.644531 -2.753906 5.40625 -3.953125 C 5.164062 -5.160156 4.988281 -6.304688 4.875 -7.390625 C 4.507812 -10.035156 4.234375 -12.632812 4.046875 -15.1875 C 3.867188 -17.738281 3.753906 -20.304688 3.703125 -22.890625 C 3.515625 -28.242188 3.421875 -33.59375 3.421875 -38.9375 C 3.359375 -41.519531 3.3125 -44.132812 3.28125 -46.78125 C 3.257812 -49.425781 3.488281 -52.039062 3.96875 -54.625 C 4.03125 -54.863281 4.207031 -54.984375 4.5 -54.984375 C 4.800781 -54.984375 4.984375 -54.863281 5.046875 -54.625 C 5.347656 -52.820312 5.523438 -50.910156 5.578125 -48.890625 C 5.640625 -46.878906 5.703125 -44.914062 5.765625 -43 C 5.890625 -43 5.976562 -42.664062 6.03125 -42 C 6.09375 -41.34375 6.15625 -41.015625 6.21875 -41.015625 L 6.21875 -43.09375 C 6.21875 -44.164062 6.203125 -45.226562 6.171875 -46.28125 C 6.140625 -47.332031 6.125 -48.398438 6.125 -49.484375 C 6.070312 -50.390625 6.054688 -51.320312 6.078125 -52.28125 C 6.109375 -53.238281 6.335938 -54.140625 6.765625 -54.984375 C 6.765625 -56.003906 7.273438 -56.816406 8.296875 -57.421875 C 9.734375 -58.316406 11.234375 -58.523438 12.796875 -58.046875 C 14.597656 -57.691406 15.832031 -56.640625 16.5 -54.890625 C 17.039062 -54.234375 17.367188 -53.425781 17.484375 -52.46875 C 17.609375 -51.382812 17.757812 -50.285156 17.9375 -49.171875 C 18.113281 -48.054688 18.296875 -46.929688 18.484375 -45.796875 C 19.265625 -41.160156 20.132812 -36.316406 21.09375 -31.265625 C 22.050781 -26.222656 23.039062 -21.421875 24.0625 -16.859375 C 24.664062 -19.378906 25.238281 -21.898438 25.78125 -24.421875 C 26.320312 -26.953125 26.894531 -29.476562 27.5 -32 C 28.332031 -35.90625 29.195312 -39.796875 30.09375 -43.671875 C 31 -47.546875 31.722656 -51.4375 32.265625 -55.34375 C 32.390625 -55.820312 32.660156 -56.253906 33.078125 -56.640625 C 33.503906 -57.035156 33.957031 -57.265625 34.4375 -57.328125 C 35.9375 -57.742188 37.257812 -57.625 38.40625 -56.96875 C 39.0625 -57.445312 39.8125 -57.6875 40.65625 -57.6875 C 41.5 -57.6875 42.191406 -57.382812 42.734375 -56.78125 C 44.109375 -55.40625 45.21875 -53.84375 46.0625 -52.09375 C 46.90625 -50.351562 47.535156 -48.550781 47.953125 -46.6875 C 48.429688 -44.644531 48.863281 -42.617188 49.25 -40.609375 C 49.644531 -38.597656 50.023438 -36.570312 50.390625 -34.53125 C 50.503906 -33.75 50.632812 -32.96875 50.78125 -32.1875 C 50.9375 -31.40625 51.046875 -30.625 51.109375 -29.84375 C 51.285156 -29.175781 51.445312 -28.507812 51.59375 -27.84375 C 51.75 -27.1875 51.890625 -26.53125 52.015625 -25.875 C 52.316406 -24.363281 52.597656 -22.890625 52.859375 -21.453125 C 53.128906 -20.015625 53.414062 -18.539062 53.71875 -17.03125 C 54.019531 -15.707031 54.304688 -14.398438 54.578125 -13.109375 C 54.847656 -11.816406 55.046875 -10.507812 55.171875 -9.1875 Z M 17.75 -33.71875 C 17.9375 -33.289062 18.085938 -32.910156 18.203125 -32.578125 C 18.328125 -32.253906 18.507812 -31.941406 18.75 -31.640625 C 18.332031 -33.921875 17.851562 -36.546875 17.3125 -39.515625 C 16.769531 -42.492188 16.285156 -45.125 15.859375 -47.40625 C 15.804688 -48.070312 15.71875 -48.75 15.59375 -49.4375 C 15.46875 -50.132812 15.316406 -50.84375 15.140625 -51.5625 C 14.785156 -51.320312 14.363281 -51.140625 13.875 -51.015625 C 13.875 -50.898438 13.847656 -50.78125 13.796875 -50.65625 C 14.453125 -47.894531 15.09375 -45.160156 15.71875 -42.453125 C 16.351562 -39.753906 16.972656 -36.988281 17.578125 -34.15625 C 17.691406 -34.039062 17.75 -33.894531 17.75 -33.71875 Z M 31.453125 -20.015625 C 32.296875 -23.441406 33.195312 -26.863281 34.15625 -30.28125 C 35.125 -33.707031 36.175781 -37.101562 37.3125 -40.46875 C 37.257812 -40.769531 37.203125 -41.070312 37.140625 -41.375 C 37.078125 -41.675781 36.988281 -41.976562 36.875 -42.28125 C 35.90625 -39.332031 35 -36.335938 34.15625 -33.296875 C 33.320312 -30.265625 32.539062 -27.21875 31.8125 -24.15625 C 31.757812 -23.5 31.65625 -22.820312 31.5 -22.125 C 31.351562 -21.4375 31.21875 -20.757812 31.09375 -20.09375 C 31.15625 -20.039062 31.25 -20.015625 31.375 -20.015625 Z M 31.453125 -20.015625 "/></g></g></g></svg>